Arthur and the Revenge of Maltazard (2009) BluRay x264 1080P NL SUBBED


Frankrijk
Animatie / Fantasy
93 minuten

geregisseerd door Luc Besson
met Freddie Highmore, Penny Balfour en Mia Farrow

Arthur is uitzinnig van vreugde: vandaag is het einde van de tiende Maancyclus en hij zal eindelijk de wereld van de Minimoys kunnen toetreden om Sélénia te vinden. Maar uitgerekend deze dag heeft zijn vader uitgekozen om Arthur eens te laten stoppen met zijn reizen en naar zijn oma te sturen. Op de dag van zijn vertrek naar oma ontvangt Arthur van een spin een SOS-bericht van de Minimoys: Sélénia is in gevaar! Arthur twijfelt niet lang om te hulp te schieten, ook al betekent dat zijn leven riskeren tegen de beruchte Maltazard.


English

Arthur answers a distress call from Princess Selenia, who is menaced by the nefarious Maltazard

Filmgegevens
...... Regie: Luc Besson
...... Acteurs: Freddie Highmore, Penny Balfour en Mia Farrow
...... Genre: Animatie / Fantasy
...... Audio: Engels DTS 5.1
...... Subtitels: Nederlands custom (instelbaar)
...... Beeld: 16:9
...... Speelduur: 93 minuten
...... Land: Frankrijk
...... IMDB Beoordeling: 4.8/10 (375 votes)
...... Compressie: x264
...... Bron: Arthur.And.The.Revenge.Of.Maltazard.2009.1080p.BluRay.x264-Japhson
Thanks: Just_4_fun_Team

Format                           : Matroska
File size                        : 6.55 GiB
Duration                         : 1h 33mn
Overall bit rate                 : 10.0 Mbps
Encoded date                     : UTC 2010-03-22 18:12:06
Writing application              : mkvmerge v3.2.0 ('Beginnings') built on Feb 12 2010 16:46:17
Writing library                  : libebml v0.7.9 + libmatroska v0.8.1

Video
ID                               : 1
Format                           : AVC
Format/Info                      : Advanced Video Codec
Format profile                   : High@L4.1
Format settings, CABAC           : Yes
Format settings, ReFrames        : 5 frames
Muxing mode                      : Container profile=Unknown@4.1
Codec ID                         : V_MPEG4/ISO/AVC
Duration                         : 1h 33mn
Bit rate                         : 8 296 Kbps
Nominal bit rate                 : 8 510 Kbps
Width                            : 1 920 pixels
Height                           : 816 pixels
Display aspect ratio             : 2.35
Frame rate                       : 24.000 fps
Resolution                       : 24 bits
Colorimetry                      : 4:2:0
Scan type                        : Progressive
Bits/(Pixel*Frame)               : 0.221
Stream size                      : 5.43 GiB (83%)
Writing library                  : x264 core 88 r1462 7fcffde
Encoding settings                : cabac=1 / ref=5 / deblock=1:-1:-1 / analyse=0x3:0x113 / me=umh / subme=7 / psy=1 / psy_rd=1.00:0.00 / mixed_ref=1 / me_range=16 / chroma_me=1 / trellis=2 / 8x8dct=1 / cqm=0 / deadzone=21,11 / fast_pskip=1 / chroma_qp_offset=-2 / threads=6 / sliced_threads=0 / nr=0 / decimate=1 / mbaff=0 / constrained_intra=0 / bframes=3 / b_pyramid=2 / b_adapt=2 / b_bias=0 / direct=3 / wpredb=1 / wpredp=2 / keyint=250 / keyint_min=25 / scenecut=40 / intra_refresh=0 / rc_lookahead=40 / rc=2pass / mbtree=1 / bitrate=8510 / ratetol=1.0 / qcomp=0.60 / qpmin=10 / qpmax=51 / qpstep=4 / cplxblur=20.0 / qblur=0.5 / vbv_maxrate=50000 / vbv_bufsize=50000 / ip_ratio=1.40 / aq=1:1.00
Language                         : English

Audio
ID                               : 2
Format                           : DTS
Format/Info                      : Digital Theater Systems
Codec ID                         : A_DTS
Duration                         : 1h 33mn
Bit rate mode                    : Constant
Bit rate                         : 1 510 Kbps
Channel(s)                       : 6 channels
Channel positions                : Front: L C R, Surround: L R, LFE
Sampling rate                    : 48.0 KHz
Resolution                       : 24 bits
Stream size                      : 1 012 MiB (15%)
Language                         : English

Text
ID                               : 3
Format                           : UTF-8
Codec ID                         : S_TEXT/UTF8
Codec ID/Info                    : UTF-8 Plain Text
Title                            : Dutch
Language                         : Dutch




Spotinformatie 
Categorie : Beeld 
Formaat : x264HD 
Bron : Retail
 
Ondertitels : Nederlands (instelbaar)
 
Genre : Animatie
Fantasiefilm
 
Weblink :  http://www.moviemeter.nl/film/47275
Weblink :  http://www.imdb.com/title/tt0940657

******************************************

Brought to you by 
Pioen

2Lions Team

meer zien??
Kom dan eens kijken op ons forum 
                                        
http://www.2lions-site.nl


2Lions the site to be for all your Dutch MOVIES and more

******************************************


DON T HIT AND RUN Niet gelijk afhaken als de FILM binnen is blijf seeden. 

Don`t quit after you finished the download, but keep seeding


There are fake torrents from uploaders who use our team name.
Those are not ours, or members from our team.
We 2Lions-Team are not responsible for the fake posts on our name

Wij 2Lions-Team zijn niet verantwoordelijk voor die zieke FAKE posten die op onze naam worden gedaan

 
  
 

 
 
 
